<svg id="Calque_1" data-name="Calque 1" xmlns="http://www.w3.org/2000/svg" viewBox="0 0 331 290"><defs><style>.cls-1{fill:#fff;}</style></defs><path class="cls-1" d="M249.84,166.85l36.32-86.61a7.55,7.55,0,0,0-7-10.47H109L100.53,50.1a7.56,7.56,0,0,0-6.93-4.56H51.8a7.55,7.55,0,0,0,0,15.1H88.64L147.94,198c.08.19.28.27.37.44a28.23,28.23,0,0,0-6.2,17.53,28.5,28.5,0,1,0,57,0,28.15,28.15,0,0,0-3.5-13.41h25.07A28.15,28.15,0,0,0,217.17,216a28.51,28.51,0,1,0,28.5-28.51H159.83l-6.89-16h89.94A7.56,7.56,0,0,0,249.84,166.85Zm-62.51-82H203l-30.37,71.51H157Zm-43.86,64.68-7.72-17.88,19.88-46.8h15.31Zm75.88-64.68h16.37l-30.36,71.51H189Zm-80.13,0-11.74,27.65L115.54,84.87ZM184,216a13.41,13.41,0,1,1-13.39-13.41A13.41,13.41,0,0,1,184,216Zm75.06,0a13.41,13.41,0,1,1-13.4-13.41A13.41,13.41,0,0,1,259.07,216Zm-37.31-59.58,30.37-71.51h15.72l-30,71.51Z"/></svg>